<svg width="121" height="22" viewBox="0 0 121 22" fill="none" xmlns="http://www.w3.org/2000/svg">
<path d="M26.6883 17.3938C26.4939 17.3938 26.3593 17.1997 26.4274 17.0176L32.2184 1.54598C32.2802 1.38093 32.4379 1.27155 32.6141 1.27155H35.2062C35.3826 1.27155 35.5405 1.38116 35.6021 1.54648L41.3709 17.018C41.4388 17.2 41.3042 17.3938 41.1099 17.3938H38.9477C38.7716 17.3938 38.614 17.2847 38.5521 17.1199L37.1967 13.5125C37.1734 13.4504 37.114 13.4093 37.0477 13.4093H30.6578C30.5915 13.4093 30.5322 13.4504 30.5089 13.5125L29.1534 17.1199C29.0915 17.2847 28.9339 17.3938 28.7579 17.3938H26.6883ZM31.3235 11.0454C31.3046 11.0973 31.3431 11.1522 31.3983 11.1522H36.3069C36.3622 11.1522 36.4007 11.0971 36.3816 11.0452L33.9163 4.33179C33.8907 4.26217 33.7922 4.26231 33.7668 4.33201L31.3235 11.0454Z" fill="white"/>
<path d="M47.9308 17.532C44.7293 17.532 42.3569 15.2749 42.3569 11.4977C42.3569 7.85864 44.7293 5.46334 47.9308 5.46334C49.6485 5.46334 50.8658 6.10384 51.6014 7.04899C51.6496 7.11095 51.7542 7.0779 51.7542 6.99938V1.69411C51.7542 1.46073 51.9434 1.27155 52.1767 1.27155H53.8191C54.0525 1.27155 54.2417 1.46073 54.2417 1.69411V16.9712C54.2417 17.2046 54.0525 17.3938 53.8191 17.3938H52.4392C52.2306 17.3938 52.0532 17.2416 52.0215 17.0355L51.8293 15.7862C51.8185 15.7163 51.7281 15.6935 51.6841 15.7489C50.8981 16.739 49.7066 17.532 47.9308 17.532ZM48.3454 15.4131C50.4183 15.4131 51.7772 13.8469 51.7772 11.5437C51.7772 9.17146 50.4183 7.58226 48.3454 7.58226C46.2725 7.58226 44.9135 9.17146 44.9135 11.4977C44.9135 13.8469 46.2725 15.4131 48.3454 15.4131Z" fill="white"/>
<path d="M60.9134 17.532C58.3337 17.532 56.5372 16.2653 56.5372 14.0772C56.5372 11.6589 58.2877 10.3 61.5813 10.3H64.4729C64.5169 10.3 64.5525 10.2644 64.5525 10.2204V9.58603C64.5525 8.22715 63.6082 7.4671 61.9729 7.4671C60.6242 7.4671 59.7288 7.99283 59.4152 8.85129C59.3447 9.04426 59.1741 9.19449 58.9687 9.19449H57.3543C57.1026 9.19449 56.9048 8.97475 56.9598 8.72919C57.4149 6.70055 59.3224 5.46334 62.088 5.46334C65.2204 5.46334 67.017 6.9604 67.017 9.74725V14.4688C67.017 15.0676 67.2473 15.2288 67.777 15.2288H67.8612C68.0945 15.2288 68.2837 15.418 68.2837 15.6514V16.9712C68.2837 17.2046 68.0945 17.3938 67.8612 17.3938H66.9709C65.4277 17.3938 64.8058 16.6798 64.8058 15.5973C64.8058 15.5839 64.7882 15.5787 64.7808 15.5899C64.0413 16.7214 62.8264 17.532 60.9134 17.532ZM61.2588 15.5973C63.3318 15.5973 64.5525 14.3766 64.5525 12.5571V12.2221C64.5525 12.1782 64.5169 12.1426 64.4729 12.1426H61.4661C59.923 12.1426 59.0708 12.7184 59.0708 13.893C59.0708 14.9755 59.8999 15.5973 61.2588 15.5973Z" fill="white"/>
<path d="M70.6103 22.0002C70.3769 22.0002 70.1877 21.811 70.1877 21.5776V6.02409C70.1877 5.79071 70.3769 5.60153 70.6103 5.60153H72.0093C72.2196 5.60153 72.3979 5.75615 72.4276 5.96433L72.6021 7.18577C72.6121 7.25581 72.7023 7.2795 72.7469 7.22455C73.5329 6.25525 74.724 5.46334 76.4986 5.46334C79.7231 5.46334 82.0955 7.72045 82.0955 11.4977C82.0955 15.1367 79.7231 17.532 76.5216 17.532C74.8044 17.532 73.5874 16.8919 72.8517 15.9286C72.8038 15.8659 72.6982 15.8987 72.6982 15.9776V21.5776C72.6982 21.811 72.5091 22.0002 72.2757 22.0002H70.6103ZM76.084 15.4131C78.1569 15.4131 79.5389 13.8469 79.5389 11.4977C79.5389 9.17146 78.1569 7.58226 76.084 7.58226C74.0341 7.58226 72.6522 9.17145 72.6522 11.4746C72.6522 13.8239 74.0341 15.4131 76.084 15.4131Z" fill="white"/>
<path d="M87.9819 17.3938C85.7248 17.3938 84.7804 16.3343 84.7804 14.1924V7.86911C84.7804 7.82517 84.7448 7.78955 84.7009 7.78955H83.1531C82.9197 7.78955 82.7306 7.60036 82.7306 7.36699V6.02409C82.7306 5.79071 82.9197 5.60153 83.1531 5.60153H84.7009C84.7448 5.60153 84.7804 5.5659 84.7804 5.52196V2.73054C84.7804 2.49717 84.9696 2.30798 85.203 2.30798H86.8454C87.0788 2.30798 87.268 2.49717 87.268 2.73054V5.52196C87.268 5.5659 87.3036 5.60153 87.3475 5.60153H89.8857C90.119 5.60153 90.3082 5.79071 90.3082 6.02409V7.36698C90.3082 7.60036 90.119 7.78955 89.8857 7.78955H87.3475C87.3036 7.78955 87.268 7.82517 87.268 7.86911V13.939C87.268 14.8603 87.6134 15.2058 88.5578 15.2058H89.8857C90.119 15.2058 90.3082 15.395 90.3082 15.6284V16.9712C90.3082 17.2046 90.119 17.3938 89.8857 17.3938H87.9819Z" fill="white"/>
<path d="M92.7513 17.3938C92.5179 17.3938 92.3287 17.2046 92.3287 16.9712V6.02409C92.3287 5.79071 92.5179 5.60153 92.7513 5.60153H94.4167C94.6501 5.60153 94.8393 5.79071 94.8393 6.02409V16.9712C94.8393 17.2046 94.6501 17.3938 94.4167 17.3938H92.7513Z" fill="white"/>
<path d="M101.006 17.3938C100.872 17.3938 100.753 17.3108 100.707 17.1858L96.5707 5.98079C96.5028 5.79685 96.6389 5.60153 96.835 5.60153H98.8044C98.9831 5.60153 99.1425 5.71397 99.2024 5.88234L102.275 14.5101C102.3 14.5808 102.4 14.5806 102.425 14.5098L105.452 5.88413C105.512 5.71484 105.672 5.60153 105.851 5.60153H107.773C107.969 5.60153 108.105 5.79685 108.037 5.98079L103.901 17.1858C103.855 17.3108 103.736 17.3938 103.602 17.3938H101.006Z" fill="white"/>
<path d="M114.737 17.532C111.028 17.532 108.702 15.1367 108.702 11.5207C108.702 7.88167 111.028 5.46334 114.506 5.46334C117.892 5.46334 120.218 7.65136 120.218 11.1983V11.7687C120.218 11.9243 120.092 12.0504 119.937 12.0504H111.384C111.34 12.0504 111.305 12.0861 111.305 12.13V12.1886C111.305 14.1694 112.641 15.5052 114.598 15.5052C116.014 15.5052 117.081 14.8653 117.514 13.7635C117.584 13.5855 117.749 13.4554 117.94 13.4554H119.766C119.942 13.4554 120.075 13.6146 120.032 13.7848C119.491 15.9255 117.521 17.532 114.737 17.532ZM111.386 10.1186C111.379 10.1658 111.416 10.2079 111.464 10.2079H117.595C117.643 10.2079 117.68 10.1658 117.673 10.1186C117.436 8.42384 116.25 7.4671 114.529 7.4671C112.99 7.4671 111.629 8.44563 111.386 10.1186Z" fill="white"/>
<path d="M92.215 1.94994C92.215 1.51052 92.5712 1.1543 93.0106 1.1543H94.1246C94.564 1.1543 94.9202 1.51052 94.9202 1.94994V3.06384C94.9202 3.50327 94.564 3.85949 94.1246 3.85949H93.0106C92.5712 3.85949 92.215 3.50327 92.215 3.06384V1.94994Z" fill="white"/>
<path d="M6.75909 7.68568C6.75909 6.84723 7.43881 6.16753 8.27728 6.16753H11.1713C12.0098 6.16753 12.6895 6.84723 12.6895 7.68568V10.8169C12.6895 11.6553 12.0098 12.335 11.1713 12.335H8.27728C7.4388 12.335 6.75909 11.6553 6.75909 10.8169V7.68568Z" fill="white"/>
<path d="M13.9997 0C16.7488 0 18.9774 2.22852 18.9774 4.97754V10.5071C18.9774 10.6381 18.8712 10.7443 18.7402 10.7443H16.0106C15.8796 10.7443 15.7734 10.6381 15.7734 10.5071L15.6531 5.8841C15.6531 4.33778 14.6128 3.08423 13.0664 3.08423H6.06655C4.52021 3.08427 3.32104 4.3378 3.32104 5.8841V12.9372C3.32105 14.4835 4.52021 15.6559 6.06655 15.6559H11.3446C11.4756 15.6559 11.5818 15.7621 11.5818 15.8931V18.2652C11.5818 18.3963 11.4756 18.5025 11.3446 18.5025H4.97768C2.22858 18.5025 0 16.5928 0 13.8438V4.97754C1.90422e-07 2.22852 2.22858 0 4.97768 0H13.9997Z" fill="white"/>
<path d="M14.0742 14.6653C14.0742 14.0102 14.6052 13.3954 15.2603 13.3954H17.3673C18.0224 13.3954 18.6232 14.0102 18.6232 14.6653V16.842C18.6232 17.497 18.0224 18.0419 17.3673 18.0419H15.2603C14.6052 18.0419 14.0742 17.497 14.0742 16.842V14.6653Z" fill="white"/>
</svg>
